<svg xmlns="http://www.w3.org/2000/svg" viewBox="0 0 800 800">
  <rect width="800" height="800" fill="#f5f1e8"/>
  <circle cx="400" cy="390" r="265" fill="#eae3d2"/>
  
  <ellipse cx="400" cy="655" rx="230" ry="26" fill="rgba(0,0,0,0.08)"/>
  <path d="M 215 470 L 585 470 L 565 640 L 235 640 Z" fill="#d8b98d"/>
  <path d="M 215 470 L 585 470 L 580 494 L 220 494 Z" fill="#c2a172"/>
  <path d="M 240 440 Q 240 380 400 380 Q 560 380 560 440 L 560 470 L 240 470 Z" fill="#e8b872"/>
  <path d="M 252 430 Q 260 348 400 348 Q 540 348 548 430 Q 548 452 528 452 L 272 452 Q 252 452 252 430 Z" fill="#c46a44"/>
  <path d="M 300 384 q 25 -14 50 0 q 25 14 50 0 q 25 -14 50 0" stroke="#e9c94f" stroke-width="9" fill="none" stroke-linecap="round"/>
  
  <g transform="translate(400 590) scale(0.72)">
    <path d="M 6,-60 A 21 21 0 1 0 6,-18 A 26 26 0 0 1 6,-60 Z" fill="#d99a2b"/>
    <circle cx="20" cy="-52" r="2.4" fill="#d99a2b"/>
    <circle cx="26" cy="-42" r="1.7" fill="#d99a2b"/>
    <text x="0" y="0" text-anchor="middle" fill="#232946"
          font-family="Georgia, 'Times New Roman', serif" font-weight="700"
          font-size="42" letter-spacing="1">Lunat</text>
    <text x="0" y="22" text-anchor="middle" fill="#232946" opacity="0.55"
          font-family="Georgia, 'Times New Roman', serif"
          font-size="12" letter-spacing="6">KITCHEN</text>
  </g>
  
</svg>
