<svg xmlns="http://www.w3.org/2000/svg" viewBox="0 0 800 800">
  <rect width="800" height="800" fill="#f5f1e8"/>
  <circle cx="400" cy="390" r="265" fill="#eae3d2"/>
  
  <ellipse cx="400" cy="645" rx="215" ry="26" fill="rgba(0,0,0,0.08)"/>
  <path d="M 262 330 L 538 330 L 500 292 L 300 292 Z" fill="#e9d5af"/>
  <path d="M 262 330 L 538 330 L 538 610 Q 538 628 520 628 L 280 628 Q 262 628 262 610 Z" fill="#d8b98d"/>
  <path d="M 262 330 L 538 330 L 538 352 L 262 352 Z" fill="#c2a172" opacity="0.45"/>
  <circle cx="352" cy="395" r="9" fill="#f3e8cf"/>
  <circle cx="400" cy="395" r="9" fill="#f3e8cf"/>
  <circle cx="448" cy="395" r="9" fill="#f3e8cf"/>
  
  <g transform="translate(400 540) scale(1)">
    <path d="M 6,-60 A 21 21 0 1 0 6,-18 A 26 26 0 0 1 6,-60 Z" fill="#d99a2b"/>
    <circle cx="20" cy="-52" r="2.4" fill="#d99a2b"/>
    <circle cx="26" cy="-42" r="1.7" fill="#d99a2b"/>
    <text x="0" y="0" text-anchor="middle" fill="#232946"
          font-family="Georgia, 'Times New Roman', serif" font-weight="700"
          font-size="42" letter-spacing="1">Lunat</text>
    <text x="0" y="22" text-anchor="middle" fill="#232946" opacity="0.55"
          font-family="Georgia, 'Times New Roman', serif"
          font-size="12" letter-spacing="6">KITCHEN</text>
  </g>
  
</svg>
