<svg xmlns="http://www.w3.org/2000/svg" viewBox="0 0 800 800">
  <rect width="800" height="800" fill="#f5f1e8"/>
  <circle cx="400" cy="390" r="265" fill="#eae3d2"/>
  
  <ellipse cx="400" cy="655" rx="170" ry="26" fill="rgba(0,0,0,0.08)"/>
  <path d="M 265 300 L 535 300 L 495 640 L 305 640 Z" fill="#d8b98d"/>
  <path d="M 265 300 L 535 300 L 530 336 L 270 336 Z" fill="#c2a172"/>
  <path d="M 350 300 L 450 300 L 400 250 Z" fill="#e9d5af"/>
  <rect x="393" y="244" width="14" height="18" rx="4" fill="#c2a172"/>
  
  <g transform="translate(400 510) scale(1)">
    <path d="M 6,-60 A 21 21 0 1 0 6,-18 A 26 26 0 0 1 6,-60 Z" fill="#d99a2b"/>
    <circle cx="20" cy="-52" r="2.4" fill="#d99a2b"/>
    <circle cx="26" cy="-42" r="1.7" fill="#d99a2b"/>
    <text x="0" y="0" text-anchor="middle" fill="#232946"
          font-family="Georgia, 'Times New Roman', serif" font-weight="700"
          font-size="42" letter-spacing="1">Lunat</text>
    <text x="0" y="22" text-anchor="middle" fill="#232946" opacity="0.55"
          font-family="Georgia, 'Times New Roman', serif"
          font-size="12" letter-spacing="6">KITCHEN</text>
  </g>
  
</svg>
